<?xml version="1.0" encoding="UTF-8" standalone="no"?>
<!DOCTYPE svg PUBLIC "-//W3C//DTD SVG 1.1//EN"
 "http://www.w3.org/Graphics/SVG/1.1/DTD/svg11.dtd">
<!-- Generated by graphviz version 2.43.0 (0)
 -->
<!-- Title: g Pages: 1 -->
<svg width="1236pt" height="351pt"
 viewBox="0.00 0.00 1236.00 351.00" xmlns="http://www.w3.org/2000/svg" xmlns:xlink="http://www.w3.org/1999/xlink">
<g id="graph0" class="graph" transform="scale(1 1) rotate(0) translate(4 347)">
<title>g</title>
<polygon fill="white" stroke="transparent" points="-4,4 -4,-347 1232,-347 1232,4 -4,4"/>
<g id="clust2" class="cluster">
<title>cluster_1</title>
<polygon fill="lightgrey" stroke="lightgrey" points="60,-8 60,-195 1220,-195 1220,-8 60,-8"/>
<text text-anchor="middle" x="640" y="-179.8" font-family="Times,serif" font-size="14.00">VENTANILLAS</text>
</g>
<g id="clust3" class="cluster">
<title>cluster_3</title>
<polygon fill="lightgrey" stroke="lightgrey" points="8,-203 8,-335 339,-335 339,-203 8,-203"/>
<text text-anchor="middle" x="173.5" y="-319.8" font-family="Times,serif" font-size="14.00">IMPRESORAS</text>
</g>
<!-- window1 -->
<g id="node1" class="node">
<title>window1</title>
<polygon fill="lightyellow" stroke="lightyellow" points="403,-127 403,-163 546,-163 546,-127 403,-127"/>
<text text-anchor="middle" x="474.5" y="-141.2" font-family="Times,serif" font-size="16.00">VENTANILLA 1</text>
</g>
<!-- window2 -->
<g id="node2" class="node">
<title>window2</title>
<polygon fill="lightyellow" stroke="lightyellow" points="639,-72 639,-108 782,-108 782,-72 639,-72"/>
<text text-anchor="middle" x="710.5" y="-86.2" font-family="Times,serif" font-size="16.00">VENTANILLA 2</text>
</g>
<!-- window1&#45;&gt;window2 -->
<g id="edge1" class="edge">
<title>window1&#45;&gt;window2</title>
<path fill="none" stroke="black" d="M546.03,-128.42C572.15,-122.28 601.97,-115.27 628.93,-108.94"/>
<polygon fill="black" stroke="black" points="629.78,-112.33 638.72,-106.64 628.18,-105.52 629.78,-112.33"/>
</g>
<!-- imgWindow1_0 -->
<g id="node7" class="node">
<title>imgWindow1_0</title>
<polygon fill="white" stroke="white" points="667.5,-127 667.5,-163 753.5,-163 753.5,-127 667.5,-127"/>
<text text-anchor="middle" x="710.5" y="-141.2" font-family="Times,serif" font-size="16.00">IMG_BN</text>
</g>
<!-- window1&#45;&gt;imgWindow1_0 -->
<g id="edge6" class="edge">
<title>window1&#45;&gt;imgWindow1_0</title>
<path fill="none" stroke="black" d="M546.03,-145C581.72,-145 624.32,-145 657.08,-145"/>
<polygon fill="black" stroke="black" points="657.35,-148.5 667.35,-145 657.35,-141.5 657.35,-148.5"/>
</g>
<!-- window3 -->
<g id="node3" class="node">
<title>window3</title>
<polygon fill="lightyellow" stroke="lightyellow" points="839,-17 839,-53 982,-53 982,-17 839,-17"/>
<text text-anchor="middle" x="910.5" y="-31.2" font-family="Times,serif" font-size="16.00">VENTANILLA 3</text>
</g>
<!-- window2&#45;&gt;window3 -->
<g id="edge2" class="edge">
<title>window2&#45;&gt;window3</title>
<path fill="none" stroke="black" d="M776.33,-71.99C794.96,-66.82 815.44,-61.13 834.62,-55.8"/>
<polygon fill="black" stroke="black" points="835.82,-59.1 844.52,-53.05 833.95,-52.35 835.82,-59.1"/>
</g>
<!-- imgWindow2_0 -->
<g id="node11" class="node">
<title>imgWindow2_0</title>
<polygon fill="white" stroke="white" points="867.5,-72 867.5,-108 953.5,-108 953.5,-72 867.5,-72"/>
<text text-anchor="middle" x="910.5" y="-86.2" font-family="Times,serif" font-size="16.00">IMG_BN</text>
</g>
<!-- window2&#45;&gt;imgWindow2_0 -->
<g id="edge10" class="edge">
<title>window2&#45;&gt;imgWindow2_0</title>
<path fill="none" stroke="black" d="M782.14,-90C806.9,-90 834.23,-90 857.21,-90"/>
<polygon fill="black" stroke="black" points="857.44,-93.5 867.44,-90 857.43,-86.5 857.44,-93.5"/>
</g>
<!-- imgWindow3_0 -->
<g id="node14" class="node">
<title>imgWindow3_0</title>
<polygon fill="white" stroke="white" points="1018,-17 1018,-53 1104,-53 1104,-17 1018,-17"/>
<text text-anchor="middle" x="1061" y="-31.2" font-family="Times,serif" font-size="16.00">IMG_BN</text>
</g>
<!-- window3&#45;&gt;imgWindow3_0 -->
<g id="edge13" class="edge">
<title>window3&#45;&gt;imgWindow3_0</title>
<path fill="none" stroke="black" d="M982.27,-35C990.78,-35 999.35,-35 1007.53,-35"/>
<polygon fill="black" stroke="black" points="1007.66,-38.5 1017.66,-35 1007.66,-31.5 1007.66,-38.5"/>
</g>
<!-- client1 -->
<g id="node4" class="node">
<title>client1</title>
<polygon fill="white" stroke="white" points="68,-127 68,-163 279,-163 279,-127 68,-127"/>
<text text-anchor="middle" x="173.5" y="-141.2" font-family="Times,serif" font-size="16.00">CLIENTE Andres Lopez</text>
</g>
<!-- client1&#45;&gt;window1 -->
<g id="edge3" class="edge">
<title>client1&#45;&gt;window1</title>
<path fill="none" stroke="black" d="M279.08,-145C316.32,-145 357.67,-145 392.62,-145"/>
<polygon fill="black" stroke="black" points="392.78,-148.5 402.78,-145 392.78,-141.5 392.78,-148.5"/>
</g>
<!-- client3 -->
<g id="node5" class="node">
<title>client3</title>
<polygon fill="white" stroke="white" points="367,-72 367,-108 582,-108 582,-72 367,-72"/>
<text text-anchor="middle" x="474.5" y="-86.2" font-family="Times,serif" font-size="16.00">CLIENTE Luiz Higueros</text>
</g>
<!-- client3&#45;&gt;window2 -->
<g id="edge4" class="edge">
<title>client3&#45;&gt;window2</title>
<path fill="none" stroke="black" d="M582.23,-90C597.8,-90 613.62,-90 628.56,-90"/>
<polygon fill="black" stroke="black" points="628.76,-93.5 638.76,-90 628.76,-86.5 628.76,-93.5"/>
</g>
<!-- client6 -->
<g id="node6" class="node">
<title>client6</title>
<polygon fill="white" stroke="white" points="618,-17 618,-53 803,-53 803,-17 618,-17"/>
<text text-anchor="middle" x="710.5" y="-31.2" font-family="Times,serif" font-size="16.00">CLIENTE Luisa Diaz</text>
</g>
<!-- client6&#45;&gt;window3 -->
<g id="edge5" class="edge">
<title>client6&#45;&gt;window3</title>
<path fill="none" stroke="black" d="M803.25,-35C811.74,-35 820.3,-35 828.68,-35"/>
<polygon fill="black" stroke="black" points="828.79,-38.5 838.79,-35 828.79,-31.5 828.79,-38.5"/>
</g>
<!-- imgWindow1_1 -->
<g id="node8" class="node">
<title>imgWindow1_1</title>
<polygon fill="white" stroke="white" points="867.5,-127 867.5,-163 953.5,-163 953.5,-127 867.5,-127"/>
<text text-anchor="middle" x="910.5" y="-141.2" font-family="Times,serif" font-size="16.00">IMG_BN</text>
</g>
<!-- imgWindow1_0&#45;&gt;imgWindow1_1 -->
<g id="edge7" class="edge">
<title>imgWindow1_0&#45;&gt;imgWindow1_1</title>
<path fill="none" stroke="black" d="M753.98,-145C784.22,-145 825.06,-145 857.29,-145"/>
<polygon fill="black" stroke="black" points="857.43,-148.5 867.43,-145 857.43,-141.5 857.43,-148.5"/>
</g>
<!-- imgCWindow1_0 -->
<g id="node9" class="node">
<title>imgCWindow1_0</title>
<polygon fill="white" stroke="white" points="1025,-127 1025,-163 1097,-163 1097,-127 1025,-127"/>
<text text-anchor="middle" x="1061" y="-141.2" font-family="Times,serif" font-size="16.00">IMG_C</text>
</g>
<!-- imgWindow1_1&#45;&gt;imgCWindow1_0 -->
<g id="edge8" class="edge">
<title>imgWindow1_1&#45;&gt;imgCWindow1_0</title>
<path fill="none" stroke="black" d="M953.66,-145C972.7,-145 995.23,-145 1014.64,-145"/>
<polygon fill="black" stroke="black" points="1014.77,-148.5 1024.77,-145 1014.77,-141.5 1014.77,-148.5"/>
</g>
<!-- imgCWindow1_1 -->
<g id="node10" class="node">
<title>imgCWindow1_1</title>
<polygon fill="white" stroke="white" points="1140,-127 1140,-163 1212,-163 1212,-127 1140,-127"/>
<text text-anchor="middle" x="1176" y="-141.2" font-family="Times,serif" font-size="16.00">IMG_C</text>
</g>
<!-- imgCWindow1_0&#45;&gt;imgCWindow1_1 -->
<g id="edge9" class="edge">
<title>imgCWindow1_0&#45;&gt;imgCWindow1_1</title>
<path fill="none" stroke="black" d="M1097.13,-145C1107.44,-145 1118.87,-145 1129.72,-145"/>
<polygon fill="black" stroke="black" points="1129.89,-148.5 1139.89,-145 1129.89,-141.5 1129.89,-148.5"/>
</g>
<!-- imgCWindow2_0 -->
<g id="node12" class="node">
<title>imgCWindow2_0</title>
<polygon fill="white" stroke="white" points="1025,-72 1025,-108 1097,-108 1097,-72 1025,-72"/>
<text text-anchor="middle" x="1061" y="-86.2" font-family="Times,serif" font-size="16.00">IMG_C</text>
</g>
<!-- imgWindow2_0&#45;&gt;imgCWindow2_0 -->
<g id="edge11" class="edge">
<title>imgWindow2_0&#45;&gt;imgCWindow2_0</title>
<path fill="none" stroke="black" d="M953.66,-90C972.7,-90 995.23,-90 1014.64,-90"/>
<polygon fill="black" stroke="black" points="1014.77,-93.5 1024.77,-90 1014.77,-86.5 1014.77,-93.5"/>
</g>
<!-- imgCWindow2_1 -->
<g id="node13" class="node">
<title>imgCWindow2_1</title>
<polygon fill="white" stroke="white" points="1140,-72 1140,-108 1212,-108 1212,-72 1140,-72"/>
<text text-anchor="middle" x="1176" y="-86.2" font-family="Times,serif" font-size="16.00">IMG_C</text>
</g>
<!-- imgCWindow2_0&#45;&gt;imgCWindow2_1 -->
<g id="edge12" class="edge">
<title>imgCWindow2_0&#45;&gt;imgCWindow2_1</title>
<path fill="none" stroke="black" d="M1097.13,-90C1107.44,-90 1118.87,-90 1129.72,-90"/>
<polygon fill="black" stroke="black" points="1129.89,-93.5 1139.89,-90 1129.89,-86.5 1129.89,-93.5"/>
</g>
<!-- imgCWindow3_0 -->
<g id="node15" class="node">
<title>imgCWindow3_0</title>
<polygon fill="white" stroke="white" points="1140,-17 1140,-53 1212,-53 1212,-17 1140,-17"/>
<text text-anchor="middle" x="1176" y="-31.2" font-family="Times,serif" font-size="16.00">IMG_C</text>
</g>
<!-- imgWindow3_0&#45;&gt;imgCWindow3_0 -->
<g id="edge14" class="edge">
<title>imgWindow3_0&#45;&gt;imgCWindow3_0</title>
<path fill="none" stroke="black" d="M1104.08,-35C1112.46,-35 1121.31,-35 1129.79,-35"/>
<polygon fill="black" stroke="black" points="1129.91,-38.5 1139.91,-35 1129.91,-31.5 1129.91,-38.5"/>
</g>
<!-- PRINT_BN -->
<g id="node16" class="node">
<title>PRINT_BN</title>
<polygon fill="lightyellow" stroke="lightyellow" points="16,-267 16,-303 331,-303 331,-267 16,-267"/>
<text text-anchor="middle" x="173.5" y="-281.2" font-family="Times,serif" font-size="16.00">IMPRESORA EN BLANCO Y NEGRO</text>
</g>
<!-- PRINT_C -->
<g id="node17" class="node">
<title>PRINT_C</title>
<polygon fill="lightyellow" stroke="lightyellow" points="72,-212 72,-248 275,-248 275,-212 72,-212"/>
<text text-anchor="middle" x="173.5" y="-226.2" font-family="Times,serif" font-size="16.00">IMPRESORA A COLOR</text>
</g>
</g>
</svg>
